<?xml version="1.0" standalone="no"?>
<!DOCTYPE svg PUBLIC "-//W3C//DTD SVG 20010904//EN"
 "http://www.w3.org/TR/2001/REC-SVG-20010904/DTD/svg10.dtd">
<svg version="1.0" xmlns="http://www.w3.org/2000/svg"
 width="86.000000pt" height="76.000000pt" viewBox="0 0 86.000000 76.000000"
 preserveAspectRatio="xMidYMid meet">
<metadata>
Created by potrace 1.15, written by Peter Selinger 2001-2017
</metadata>
<g transform="translate(0.000000,76.000000) scale(0.100000,-0.100000)"
fill="#000000" stroke="none">
<path d="M185 751 c-109 -27 -185 -123 -185 -235 0 -91 12 -109 219 -318 107
-109 202 -198 211 -198 9 0 104 89 211 198 158 160 198 205 207 238 26 90 9
175 -45 235 -90 99 -219 114 -330 38 l-43 -30 -43 29 c-66 46 -131 60 -202 43z
m123 -95 c15 -8 43 -30 61 -50 46 -47 76 -47 122 0 45 48 79 64 131 64 74 0
139 -57 154 -136 11 -59 -24 -109 -190 -274 l-156 -155 -156 155 c-201 200
-222 243 -164 338 40 65 133 92 198 58z"/>
</g>
</svg>
